<svg xmlns="http://www.w3.org/2000/svg" viewBox="0 0 233.6 56.83"><defs><style>.a{fill:#ee7623;fill-rule:evenodd;}.b{fill:#1f1646;}</style></defs><path class="a" d="M27.62.5c.59-.85,4.16-.54,5.12.35a2.52,2.52,0,0,1,.14,2.83c-.47.43-4.41.3-5.26-.86A2.29,2.29,0,0,1,27.62.5Z"/><path class="a" d="M55.06,31.26a1.84,1.84,0,0,1,2.56.23c.38.53.55,2.94-.15,3.55a2.34,2.34,0,0,1-2.69-.35A4.23,4.23,0,0,1,55.06,31.26Z"/><path class="a" d="M27.17,6.94a2,2,0,0,1,.89-.77c.51-.18,4.4.35,5,1.26s.77,3.62-.61,4.11c-.71.24-4.57-.11-5.31-1.28A4.05,4.05,0,0,1,27.17,6.94Z"/><path class="a" d="M47,30.91c.08-.49.46-1.53,1-1.7s2.72-.11,3.3.8.74,4.19-.64,4.67a4.19,4.19,0,0,1-3.27-.62C46.85,33.64,46.75,32.13,47,30.91Z"/><path class="a" d="M26.59,15.37c.84-1.21,2-1,3.38-.77s3,.65,3.34,2.06a7.91,7.91,0,0,1-.06,2.07c0,.86,0,2.06-1.16,2.41-1.4.44-5.61-.28-6-2.07A8.56,8.56,0,0,1,26.59,15.37Z"/><path class="a" d="M37.63,28.06c.81-1.23,1.74-1,3.13-.82s2.62.37,3,1.77a7.29,7.29,0,0,1,0,2.28c-.11.92-.16,2-1.3,2.34-1.39.46-4.9.1-5.33-1.68A9.52,9.52,0,0,1,37.63,28.06Z"/><path class="a" d="M25.87,26c1-1.38,2.29-1,3.7-.74s2.69.26,3.2,1.71-.08,5.22-1.06,5.74c-1.34.72-5.05.18-6-1S25,27.19,25.87,26Z"/><path class="a" d="M36.84,2c1-1.86,6.33.61,5.14,3.2C41.36,6.56,35.86,4.42,36.84,2Z"/><path class="a" d="M37.39,8.89a1.57,1.57,0,0,1,.91-1c1.33-.55,3.47.48,4.21,1.64.6.93.9,3.18-.25,3.63s-3.76-.46-4.53-1.64A3.32,3.32,0,0,1,37.39,8.89Z"/><path class="a" d="M47.9,8.05c-1.31.61-4.37-2.23-3.15-3.05C46.25,4.29,49,7.35,47.9,8.05Z"/><path class="a" d="M38,17.33c1-1.57,4.7-1,5.62,1.47.23.62.26,3-.25,3.63-1.21,1.39-4,.42-4.93-.67A4.25,4.25,0,0,1,38,17.33Z"/><path class="a" d="M45.94,11.6c1.38-2.95,5.9,2.05,4.36,4-.33.43-1.44.39-2.07.11C46.36,14.91,45.61,12.48,45.94,11.6Z"/><path class="a" d="M53.52,14.66c1.27-.19,2.88,3.38,1.91,3.76C53.67,18.68,52.1,15.22,53.52,14.66Z"/><path class="a" d="M51,9.9c.77-.36,2.75,1.89,2,2.27C51.89,12.57,50,10.48,51,9.9Z"/><path class="a" d="M48,19.44c2.34-2.05,5.55,3.73,3.29,5.4a2.64,2.64,0,0,1-2.8-.35C47.37,23.56,46.61,20.65,48,19.44Z"/><path class="a" d="M55.45,21.58c1.49-.33,3.16,3.61,1.85,5C55.82,28.17,53,22.64,55.45,21.58Z"/><path class="b" d="M42,37.35a16.24,16.24,0,1,1-18.2-24.48L17.13,2.37a28.39,28.39,0,1,0,33,44.35Z"/><path class="b" d="M74.48,38.5a6.47,6.47,0,0,1-2.52.43A4.58,4.58,0,0,1,67,34a4.89,4.89,0,0,1,5.2-5.13,5.46,5.46,0,0,1,2.35.43l-.38,1.41a4.81,4.81,0,0,0-1.9-.37A3.24,3.24,0,0,0,68.87,34a3.17,3.17,0,0,0,3.39,3.5,5.45,5.45,0,0,0,1.93-.35Z"/><path class="b" d="M83,35.2a3.48,3.48,0,0,1-3.6,3.73,3.39,3.39,0,0,1-3.52-3.61,3.46,3.46,0,0,1,3.63-3.72A3.37,3.37,0,0,1,83,35.2Zm-5.29.07c0,1.36.68,2.38,1.74,2.38s1.72-1,1.72-2.4c0-1.1-.49-2.37-1.7-2.37S77.73,34.11,77.73,35.27Z"/><path class="b" d="M85.14,33.85c0-.81,0-1.49-.06-2.09h1.51l.09,1h0a2.39,2.39,0,0,1,2.16-1.2,2,2,0,0,1,2,1.3h0a2.66,2.66,0,0,1,.85-.88,2.45,2.45,0,0,1,1.44-.42c1.15,0,2.33.79,2.33,3v4.13H93.75V34.9c0-1.17-.4-1.86-1.25-1.86a1.35,1.35,0,0,0-1.24.94,1.83,1.83,0,0,0-.09.59v4.2H89.44V34.71c0-1-.39-1.67-1.21-1.67A1.42,1.42,0,0,0,87,34a1.87,1.87,0,0,0-.08.59v4.14H85.14Z"/><path class="b" d="M98,33.85c0-.81,0-1.49-.06-2.09h1.51l.09,1h0a2.38,2.38,0,0,1,2.16-1.2,2,2,0,0,1,1.95,1.3h0a2.87,2.87,0,0,1,.85-.88A2.48,2.48,0,0,1,106,31.6c1.16,0,2.34.79,2.34,3v4.13h-1.73V34.9c0-1.17-.4-1.86-1.25-1.86a1.34,1.34,0,0,0-1.24.94,1.83,1.83,0,0,0-.09.59v4.2h-1.73V34.71c0-1-.39-1.67-1.21-1.67a1.42,1.42,0,0,0-1.28,1,1.87,1.87,0,0,0-.09.59v4.14H98Z"/><path class="b" d="M112.15,35.76a1.9,1.9,0,0,0,2.16,1.82,5.57,5.57,0,0,0,1.94-.32l.26,1.21a6.26,6.26,0,0,1-2.45.45,3.32,3.32,0,0,1-3.61-3.54c0-2,1.18-3.78,3.43-3.78s3,1.87,3,3.41a4.05,4.05,0,0,1-.06.75Zm3.08-1.23a1.51,1.51,0,0,0-1.46-1.72,1.73,1.73,0,0,0-1.62,1.72Z"/><path class="b" d="M119,34c0-1,0-1.64-.06-2.26h1.53l.07,1.33h0a2.11,2.11,0,0,1,1.93-1.49,2.5,2.5,0,0,1,.42,0V33.3a2.72,2.72,0,0,0-.53,0,1.56,1.56,0,0,0-1.59,1.34,4.24,4.24,0,0,0,0,.53v3.64H119Z"/><path class="b" d="M129.81,38.56a5.21,5.21,0,0,1-2,.36,3.38,3.38,0,0,1-3.62-3.59,3.62,3.62,0,0,1,3.91-3.73,4.73,4.73,0,0,1,1.71.32l-.32,1.34a2.77,2.77,0,0,0-1.33-.28A2.09,2.09,0,0,0,126,35.26a2.08,2.08,0,0,0,2.15,2.26,3.56,3.56,0,0,0,1.39-.27Z"/><path class="b" d="M132.91,35.76a1.9,1.9,0,0,0,2.16,1.82,5.57,5.57,0,0,0,1.94-.32l.26,1.21a6.3,6.3,0,0,1-2.45.45,3.31,3.31,0,0,1-3.61-3.54c0-2,1.18-3.78,3.42-3.78s3,1.87,3,3.41a4.05,4.05,0,0,1-.06.75ZM136,34.53a1.52,1.52,0,0,0-1.46-1.72,1.73,1.73,0,0,0-1.62,1.72Z"/><path class="b" d="M143.46,29.2a19.38,19.38,0,0,1,2.83-.21,5.85,5.85,0,0,1,3.94,1.13,4.33,4.33,0,0,1,1.53,3.57,5,5,0,0,1-1.51,3.86,6.49,6.49,0,0,1-4.39,1.33,20.19,20.19,0,0,1-2.4-.13Zm1.78,8.23a5.63,5.63,0,0,0,1,0c2.31,0,3.68-1.27,3.68-3.73a3.09,3.09,0,0,0-3.44-3.37,5.57,5.57,0,0,0-1.21.1Z"/><path class="b" d="M155.15,35.76a1.9,1.9,0,0,0,2.16,1.82,5.57,5.57,0,0,0,1.94-.32l.26,1.21a6.26,6.26,0,0,1-2.45.45,3.32,3.32,0,0,1-3.61-3.54c0-2,1.18-3.78,3.43-3.78s3,1.87,3,3.41a4.05,4.05,0,0,1-.06.75Zm3.08-1.23a1.51,1.51,0,0,0-1.46-1.72,1.73,1.73,0,0,0-1.62,1.72Z"/><path class="b" d="M163.07,31.76l1.14,3.56c.2.62.34,1.18.47,1.75h0c.13-.57.28-1.12.47-1.75l1.12-3.56h1.86l-2.68,7h-1.74l-2.61-7Z"/><path class="b" d="M171,35.76a1.91,1.91,0,0,0,2.16,1.82,5.63,5.63,0,0,0,1.95-.32l.26,1.21a6.3,6.3,0,0,1-2.45.45,3.32,3.32,0,0,1-3.62-3.54c0-2,1.18-3.78,3.43-3.78s3,1.87,3,3.41a4.05,4.05,0,0,1-.06.75Zm3.09-1.23a1.52,1.52,0,0,0-1.46-1.72A1.74,1.74,0,0,0,171,34.53Z"/><path class="b" d="M177.84,28.55h1.77V38.77h-1.77Z"/><path class="b" d="M188.87,35.2a3.48,3.48,0,0,1-3.6,3.73,3.39,3.39,0,0,1-3.52-3.61,3.47,3.47,0,0,1,3.63-3.72A3.37,3.37,0,0,1,188.87,35.2Zm-5.29.07c0,1.36.68,2.38,1.75,2.38s1.71-1,1.71-2.4c0-1.1-.49-2.37-1.7-2.37S183.58,34.11,183.58,35.27Z"/><path class="b" d="M191,34.09c0-.92,0-1.67-.06-2.33h1.56l.08,1.08h0A2.74,2.74,0,0,1,195,31.6c1.61,0,3,1.38,3,3.57,0,2.54-1.6,3.76-3.2,3.76a2.3,2.3,0,0,1-2-.93h0v3.63H191Zm1.77,1.75a2.63,2.63,0,0,0,0,.49,1.62,1.62,0,0,0,1.57,1.23c1.13,0,1.79-.93,1.79-2.31S195.55,33,194.42,33a1.67,1.67,0,0,0-1.6,1.31,2.22,2.22,0,0,0-.06.45Z"/><path class="b" d="M200.08,33.85c0-.81,0-1.49-.06-2.09h1.51l.09,1h0a2.39,2.39,0,0,1,2.16-1.2,2,2,0,0,1,2,1.3h0a2.87,2.87,0,0,1,.85-.88,2.51,2.51,0,0,1,1.45-.42c1.15,0,2.33.79,2.33,3v4.13h-1.73V34.9c0-1.17-.4-1.86-1.25-1.86a1.35,1.35,0,0,0-1.24.94,1.83,1.83,0,0,0-.09.59v4.2h-1.73V34.71c0-1-.39-1.67-1.21-1.67a1.42,1.42,0,0,0-1.28,1,1.87,1.87,0,0,0-.09.59v4.14h-1.72Z"/><path class="b" d="M214.21,35.76a1.9,1.9,0,0,0,2.16,1.82,5.53,5.53,0,0,0,1.94-.32l.26,1.21a6.25,6.25,0,0,1-2.44.45,3.32,3.32,0,0,1-3.62-3.54c0-2,1.18-3.78,3.43-3.78s3,1.87,3,3.41a4.05,4.05,0,0,1-.06.75Zm3.08-1.23a1.51,1.51,0,0,0-1.45-1.72,1.73,1.73,0,0,0-1.63,1.72Z"/><path class="b" d="M221.05,33.85c0-.81,0-1.49-.06-2.09h1.55l.08,1.05h0a2.59,2.59,0,0,1,2.25-1.21c1.23,0,2.49.79,2.49,3v4.16h-1.77v-4c0-1-.37-1.77-1.34-1.77a1.5,1.5,0,0,0-1.38,1,1.57,1.57,0,0,0-.09.56v4.13h-1.77Z"/><path class="b" d="M231.91,30v1.8h1.69v1.33h-1.69v3.09c0,.87.23,1.3.91,1.3a2.56,2.56,0,0,0,.69-.07l0,1.34a3.92,3.92,0,0,1-1.28.18,2,2,0,0,1-1.53-.57,2.79,2.79,0,0,1-.56-2V33.09h-1V31.76h1V30.45Z"/><path class="b" d="M67.52,42.5a15.22,15.22,0,0,1,2.68-.22,4.48,4.48,0,0,1,3,.78A2.43,2.43,0,0,1,74,45a2.56,2.56,0,0,1-1.77,2.42v0a2.42,2.42,0,0,1,1.35,1.87,24.05,24.05,0,0,0,.77,2.71H72.56a12.78,12.78,0,0,1-.65-2.29c-.29-1.27-.73-1.67-1.74-1.7h-.89v4H67.52Zm1.76,4.27h1c1.19,0,1.93-.63,1.93-1.59s-.74-1.56-1.89-1.56a4.55,4.55,0,0,0-1.09.09Z"/><path class="b" d="M77.6,49.05a1.9,1.9,0,0,0,2.16,1.82,5.63,5.63,0,0,0,1.95-.32L82,51.76a6.3,6.3,0,0,1-2.45.45,3.32,3.32,0,0,1-3.62-3.55,3.47,3.47,0,0,1,3.43-3.77c2.28,0,3,1.87,3,3.41a4.23,4.23,0,0,1-.06.75Zm3.08-1.24a1.5,1.5,0,0,0-1.45-1.71,1.73,1.73,0,0,0-1.63,1.71Z"/><path class="b" d="M84.37,50.42a3.93,3.93,0,0,0,1.79.52c.78,0,1.12-.33,1.12-.8s-.29-.7-1.15-1c-1.37-.46-1.93-1.21-1.93-2,0-1.24,1-2.19,2.65-2.19a4,4,0,0,1,1.87.41l-.36,1.24a3.12,3.12,0,0,0-1.48-.4c-.63,0-1,.32-1,.75s.33.65,1.22,1C88.41,48.32,89,49,89,50c0,1.28-1,2.21-2.86,2.21a4.49,4.49,0,0,1-2.13-.5Z"/><path class="b" d="M92.37,49.05a1.9,1.9,0,0,0,2.16,1.82,5.53,5.53,0,0,0,1.94-.32l.26,1.21a6.26,6.26,0,0,1-2.45.45,3.32,3.32,0,0,1-3.61-3.55,3.47,3.47,0,0,1,3.43-3.77c2.27,0,3,1.87,3,3.41a4.23,4.23,0,0,1-.06.75Zm3.08-1.24A1.5,1.5,0,0,0,94,46.1a1.73,1.73,0,0,0-1.63,1.71Z"/><path class="b" d="M104.66,50.38a9.14,9.14,0,0,0,.11,1.68h-1.6l-.13-.78h0a2.56,2.56,0,0,1-2.08.94,2.08,2.08,0,0,1-2.2-2.09c0-1.76,1.57-2.66,4.16-2.65v-.11c0-.47-.18-1.23-1.42-1.23a3.77,3.77,0,0,0-1.89.52l-.35-1.15a5,5,0,0,1,2.54-.62c2.25,0,2.9,1.42,2.9,3Zm-1.73-1.75c-1.26,0-2.45.25-2.45,1.31a.93.93,0,0,0,1,1,1.44,1.44,0,0,0,1.39-1,1,1,0,0,0,.05-.39Z"/><path class="b" d="M107.19,47.31c0-1,0-1.64-.06-2.26h1.53l.07,1.32h0a2.08,2.08,0,0,1,1.93-1.48,1.73,1.73,0,0,1,.41,0v1.66a2.65,2.65,0,0,0-.53-.05A1.55,1.55,0,0,0,109,47.88a3,3,0,0,0-.05.54v3.64h-1.77Z"/><path class="b" d="M118,51.84a5,5,0,0,1-2,.37,3.38,3.38,0,0,1-3.61-3.59,3.61,3.61,0,0,1,3.9-3.73,4.75,4.75,0,0,1,1.71.31l-.31,1.34a3,3,0,0,0-1.34-.27,2.27,2.27,0,0,0,0,4.54,3.37,3.37,0,0,0,1.39-.28Z"/><path class="b" d="M120,41.83h1.77V46h0a2.42,2.42,0,0,1,.88-.8,2.52,2.52,0,0,1,1.23-.31c1.19,0,2.45.79,2.45,3v4.13h-1.78v-4c0-1-.37-1.78-1.35-1.78a1.47,1.47,0,0,0-1.38,1,1.55,1.55,0,0,0-.08.53v4.21H120Z"/><path class="b" d="M134.37,42.35v9.71H132.6V42.35Z"/><path class="b" d="M137.08,47.13c0-.8,0-1.48-.06-2.08h1.55l.08,1.05h0a2.56,2.56,0,0,1,2.24-1.21c1.23,0,2.49.79,2.49,3v4.16h-1.77v-4c0-1-.37-1.77-1.34-1.77a1.49,1.49,0,0,0-1.38,1,1.53,1.53,0,0,0-.09.56v4.13h-1.77Z"/><path class="b" d="M145.91,50.42a3.9,3.9,0,0,0,1.79.52c.78,0,1.12-.33,1.12-.8s-.29-.7-1.15-1c-1.37-.46-1.93-1.21-1.93-2,0-1.24,1-2.19,2.65-2.19a4,4,0,0,1,1.87.41l-.36,1.24a3.12,3.12,0,0,0-1.48-.4c-.64,0-1,.32-1,.75s.33.65,1.22,1c1.29.45,1.86,1.09,1.88,2.13,0,1.28-1,2.21-2.86,2.21a4.49,4.49,0,0,1-2.13-.5Z"/><path class="b" d="M154.68,43.25v1.8h1.69v1.32h-1.69v3.1c0,.86.23,1.29.91,1.29a2.21,2.21,0,0,0,.69-.07l0,1.34a3.87,3.87,0,0,1-1.28.19,2.06,2.06,0,0,1-1.53-.58,2.8,2.8,0,0,1-.56-2v-3.3h-1V45.05h1V43.73Z"/><path class="b" d="M160.26,43.09a1,1,0,1,1-1-1A.95.95,0,0,1,160.26,43.09Zm-1.89,9v-7h1.77v7Z"/><path class="b" d="M164.75,43.25v1.8h1.69v1.32h-1.69v3.1c0,.86.23,1.29.91,1.29a2.21,2.21,0,0,0,.69-.07l0,1.34a3.87,3.87,0,0,1-1.28.19,2,2,0,0,1-1.53-.58,2.75,2.75,0,0,1-.56-2v-3.3h-1V45.05h1V43.73Z"/><path class="b" d="M174.72,50c0,.83,0,1.52.06,2.1h-1.54L173.15,51h0a2.56,2.56,0,0,1-2.26,1.21c-1.27,0-2.44-.76-2.44-3V45.05h1.77v3.81c0,1.17.38,1.92,1.32,1.92a1.43,1.43,0,0,0,1.35-1,1.35,1.35,0,0,0,.1-.55V45.05h1.77Z"/><path class="b" d="M179.33,43.25v1.8H181v1.32h-1.69v3.1c0,.86.23,1.29.91,1.29a2.21,2.21,0,0,0,.69-.07L181,52a3.87,3.87,0,0,1-1.28.19,2,2,0,0,1-1.53-.58,2.75,2.75,0,0,1-.56-2v-3.3h-1V45.05h1V43.73Z"/><path class="b" d="M184.19,49.05a1.9,1.9,0,0,0,2.16,1.82,5.57,5.57,0,0,0,1.94-.32l.26,1.21a6.26,6.26,0,0,1-2.45.45,3.32,3.32,0,0,1-3.61-3.55,3.47,3.47,0,0,1,3.42-3.77c2.28,0,3,1.87,3,3.41a4.23,4.23,0,0,1-.06.75Zm3.08-1.24a1.51,1.51,0,0,0-1.46-1.71,1.72,1.72,0,0,0-1.62,1.71Z"/><path class="b" d="M82.08,23a1.94,1.94,0,0,0,1.16,0c.39-.15.58-.37.58-.64V16.07H79a.86.86,0,0,1-1-1V12.23H75.88a.28.28,0,0,0,0,.15c-.44,1.86-2,3.25-4.67,4.17l-1.1-1.75v9.89H67.85V10.63a.48.48,0,0,1,.54-.54h4.06q-.58-1.46-.78-1.92H67V6h8.85V5H78.1V6h8.64V8.17H82.23c-.32.9-.52,1.54-.61,1.92h3.87a.49.49,0,0,1,.56.54V23.5A1.63,1.63,0,0,1,85,25a7.14,7.14,0,0,1-3.8.15L81.1,23H71.91c-.38,0-.56-.19-.56-.58V17.26a.51.51,0,0,1,.56-.56h10c.39,0,.58.2.58.56V22.4A.55.55,0,0,1,82.08,23ZM73.61,12.23H70.25c-.12,0-.18.07-.18.17v2.19c.25-.09.48-.16.69-.22a4.38,4.38,0,0,0,2.81-2A.32.32,0,0,1,73.61,12.23Zm0,6.52q-.1,0-.09.09v2a.1.1,0,0,0,.09.11h6.65c.07,0,.11-.05.11-.11v-2c0-.06,0-.09-.11-.09Zm5.72-8.66A12.28,12.28,0,0,0,80,8.17H74c.28.67.52,1.31.74,1.92ZM83.82,14V12.4c0-.11-.06-.17-.19-.17H80.09v1.25c0,.36.17.54.52.54Z"/><path class="b" d="M102.42,24.88h-2.23V20.52A21.56,21.56,0,0,1,92.12,24l-.91-2.1a24.2,24.2,0,0,0,7.13-2.65H91.69V17.39h8.5V16.33H93V14.46h7.21v-1H92.47V11.61H97c-.28-.57-.54-1.06-.8-1.49H91.69V8.24h3.45a17.87,17.87,0,0,0-1.4-2L95.42,5a13.1,13.1,0,0,1,1.75,2.55l-1,.65h2.31V4.91h2V8.24h1.57V4.91h2V8.24h1.8l-.72-.52a17.79,17.79,0,0,0,1.92-2.93l1.77,1.07a17.45,17.45,0,0,1-1.46,2.38h3.34v1.88h-4.7c-.19.46-.41,1-.67,1.49H110v1.87h-7.6v1h7.08v1.87h-7.08v1.06h8.29v1.88H104.1a.05.05,0,0,1,0,0A20.29,20.29,0,0,0,111.4,22l-1.15,2a28.89,28.89,0,0,1-7.83-3.5Zm.67-13.27.73-1.49H98.58c.24.46.48,1,.71,1.49Z"/><path class="b" d="M127.77,12.56v.71a2.05,2.05,0,0,1-.33,1.14,4.68,4.68,0,0,1-2.61,1.64l-.69-1.44v1a.31.31,0,0,1-.35.35h-4.16a.43.43,0,0,0-.24.06.4.4,0,0,0-.08.26v.82h4.38c.41,0,.63.17.65.56a55.58,55.58,0,0,1-1,5.72,2.13,2.13,0,0,1-.86,1.28,4.12,4.12,0,0,1-1.86.45,12,12,0,0,1-3.26-.65V22.16c2,.72,3.32.91,4,.56.25-.11.53-1.23.84-3.34-.08-.18-.18-.24-.28-.2h-2.54v.67c-.68-.06-1.36-.09-2.06-.09V14.41a.5.5,0,0,1,.16-.37.47.47,0,0,1,.32-.1h4a.31.31,0,0,0,.34-.35v-.82a.3.3,0,0,0-.34-.32h-2.62a22.28,22.28,0,0,1-2.95.73L115,11.26a18.14,18.14,0,0,0,3.46-.82l.08,0a.24.24,0,0,1,.13,0s0-.05,0-.05c-1-.77-1.71-1.33-2.24-1.68L117.84,7c.7.47,1.68,1.24,2.93,2.29a6.32,6.32,0,0,0,2-1.88H119V5.39h5.51l1.34,1.14A9.68,9.68,0,0,1,123,10.4h.8c.25,0,.37.11.37.34v3.41a4.42,4.42,0,0,0,1.56-.77,1.41,1.41,0,0,0,.19-.74v-1.7a.76.76,0,0,1,.11-.31.52.52,0,0,1,.31-.1h4.06A25.18,25.18,0,0,1,126,6.75L127.19,5q.69.83,1.41,1.53a25.53,25.53,0,0,0,1.88-1.87l1.45,1.46a14.82,14.82,0,0,1-1.77,1.8l.69.51a20.58,20.58,0,0,0,1.67-2l1.59,1.32a20.47,20.47,0,0,1-1.46,1.84A25.65,25.65,0,0,0,136,11l-1.36,1.75c-1.08-.47-2-.91-2.68-1.29v2.63a.36.36,0,0,0,.2.06h.71c.14,0,.22-.09.24-.19V13l1.72.13v2.27c0,.35-.19.53-.58.53h-3.13a.94.94,0,0,1-.82-.34,1.11,1.11,0,0,1-.24-.78V12.6a.26.26,0,0,0-.3-.28H128A.22.22,0,0,0,127.77,12.56Zm-2.64,12.58L124,23.09a22.23,22.23,0,0,0,3.15-1,.4.4,0,0,1,.22-.09,16.15,16.15,0,0,1-2.22-2.51l1.4-1.07H125V16.35h8.26l1.23,1.19a14.82,14.82,0,0,1-1.57,3,14.6,14.6,0,0,1-1.69,1.64,16.21,16.21,0,0,0,4.21.87l-.8,2.16a14.83,14.83,0,0,1-5.39-1.73A14.48,14.48,0,0,1,125.13,25.14Zm4-4.34a1,1,0,0,0,.15.13l0,0a7.78,7.78,0,0,0,2.44-2.5H127A12.52,12.52,0,0,0,129.17,20.8Z"/><path class="b" d="M147.59,17.84v4.73c1.4-.24,2.6-.5,3.61-.78l.49,2.18a38.79,38.79,0,0,1-8.52,1.28L143,23l2.33-.17v-5h-2.2a19,19,0,0,1-.65,3.72,9.87,9.87,0,0,1-1.17,3l-2.07-1a15.4,15.4,0,0,0,1.81-7.77V6.14a.7.7,0,0,1,.8-.79h16.73c.56,0,.84.28.84.82v3.92a.75.75,0,0,1-.84.85h-3.34v1.31H159v2.14h-3.71v1.32h4.4v2.13h-1.84l1,1.77a28.53,28.53,0,0,1-3.41,1.88,18.9,18.9,0,0,0,4.85,1.58l-.95,2.14a1,1,0,0,0-.23-.05q-7.11-1.72-9.83-7.32Zm-4.36-9H157a.31.31,0,0,0,.35-.35V7.81c0-.22-.12-.33-.35-.33h-13.4a.31.31,0,0,0-.35.35Zm3.43,6.91V14.39h-2.89V12.25h2.89V10.94h-3.43v4.77Zm6.39-4.77h-4.16v1.31h4.16Zm0,4.77V14.39h-4.16v1.32Zm.26,4.25a31.36,31.36,0,0,0,4.12-2.12h-5.76a5.46,5.46,0,0,0,.43.72A8.66,8.66,0,0,0,153.31,20Z"/><path class="b" d="M168.28,24.71h-2.22V16.22l-.41.63L163.51,16a21.34,21.34,0,0,0,3.37-8.22h-2.42V5.56h7.79V7.79h-3.17a29.91,29.91,0,0,1-1.28,4.77.19.19,0,0,1,0,.08h3.58a.64.64,0,0,1,.74.71v9.39a.69.69,0,0,1-.76.76h-3Zm.37-9.84c-.25,0-.37.13-.37.36v6.05h1.12a.4.4,0,0,0,.45-.46V15.23c0-.24-.13-.36-.38-.36Zm8.59.34q-.19,6.59-3.57,9.89l-1.92-1.43q3.13-2.43,3.26-8.46h-2V13h2V7.79h-1.6V5.56h10.29V7.79h-1.38V13h1.73v2.22h-1.73v9.41h-2.22V15.21Zm2.89-7.42h-2.87V13h2.87Z"/><path class="b" d="M189.77,17.41V15.1h5.87c0-.31,0-.65,0-1V12.81H198v1.28c0,.33,0,.67,0,1h5.63c.53,0,.8.28.8.84v6.11a1,1,0,0,0,.08.44.55.55,0,0,0,.31.21h1a.43.43,0,0,0,.35-.24,1.28,1.28,0,0,0,.17-.64V18.51l2.31.37a28.65,28.65,0,0,1-.3,4.3,2.59,2.59,0,0,1-.67,1.31,1.56,1.56,0,0,1-1.12.52h-2.59a2.14,2.14,0,0,1-1.06-.32,2.18,2.18,0,0,1-.8-1.88V17.87c0-.31-.12-.46-.3-.46h-4.13a11.19,11.19,0,0,1-1.33,3.8,7.94,7.94,0,0,1-2.38,2.35,13.72,13.72,0,0,1-4.29,1.54l-1.34-2.16q4.08-.44,5.85-2.72a6.37,6.37,0,0,0,1.23-2.81Zm6.86-8.76a6.61,6.61,0,0,1-1.58,4q-1.68,1.67-5.56,2l-.85-2.14q3.57-.15,4.79-1.34a4,4,0,0,0,1.06-2.48h-3.32c-.15,0-.22.07-.22.21V11h-2.22V6.86a.4.4,0,0,1,.43-.44h8.25V5.09h2.31V6.42h8c.64,0,.94.35.88,1A12.85,12.85,0,0,1,207.7,11l1,.35a8.8,8.8,0,0,1-.65,2.54,2.26,2.26,0,0,1-1.53.87h-5.12a1.58,1.58,0,0,1-1.14-.57,1.54,1.54,0,0,1-.43-1V8.65Zm10,2.37-1.16-.39A16.92,16.92,0,0,0,206,9c0-.23-.07-.34-.3-.34h-3.65v3a1,1,0,0,0,.22.71,1,1,0,0,0,.75.28h2.57a1.45,1.45,0,0,0,.65-.24.29.29,0,0,0,.13-.21C206.45,11.89,206.52,11.51,206.62,11Z"/><path class="b" d="M224.7,5h2.22V6.34h5.53c.6,0,.88.33.82,1a19.89,19.89,0,0,1-1.06,4.81l-2.09-.69c.26-.79.5-1.69.73-2.7,0-.21,0-.32-.28-.32h-9a.19.19,0,0,0-.22.22v3h-2.22V7.38l-1,4q-.36,1.32.15,1.83a8.21,8.21,0,0,1,1.25,2.72,4.23,4.23,0,0,1-.38,3.33l-.41.47a4.63,4.63,0,0,1-3.22.58v4.49h-2.22V5.71a.35.35,0,0,1,.08-.26.43.43,0,0,1,.24-.06h4.32l1.49.93v.06a.24.24,0,0,1,.15,0h5.2Zm-7.77,2.44h-1.32l-.13,0a.17.17,0,0,0,0,.13V18.06a2,2,0,0,0,1.29.17l.05,0q1.44-.75-.82-4.77a1.63,1.63,0,0,1-.2-1.38Zm7.66,8.85v1.08a7.94,7.94,0,0,1-.32,2.14,9.39,9.39,0,0,1-5.33,5.67l-1.52-2.07a9.84,9.84,0,0,0,2.23-1.06,5.33,5.33,0,0,0,2.72-4.68V16.29h-2.46V14.15H232v2.14h-3.2v5.2a1,1,0,0,0,.22.71,1.07,1.07,0,0,0,.77.29H230a1.13,1.13,0,0,0,.67-.26,10.59,10.59,0,0,0,.24-2.68l2.2.39a12.48,12.48,0,0,1-.56,3.88,2.29,2.29,0,0,1-1.6.89h-2.76a1.71,1.71,0,0,1-1.19-.56,1.6,1.6,0,0,1-.43-1.08V16.29Zm5.1-6.11v2.14h-7.8V10.18Z"/></svg>